PathFileType	4	(X/Y/Z)	E:\Qualisys_Data\Carbon_Farble_Plate\Data\Amateur_Runner\S14\T2\S14T2V21_c3d.trc
DataRate	CameraRate	NumFrames	NumMarkers	Units	OrigDataRate	OrigDataStartFrame	OrigNumFrames
200.000000	200.000000	4	39	mm	200.000000	265	303
Frame#	Time	LSHO			RSHO			LICST			RICST			LASIS			LHEEL			RASIS			LTROC			RTROC			SACR			LTH1			LSK4			LTH2			LTH3			RHM5			LSK2			LTH4			RTH1			LTOE			RTH2			RTH3			RTH4			LLEP			RLEP			LSK1			LSK3			RSK1			LHM5			RSK2			LFT1			RSK3			RSK4			LLME			RLME			RTOE			RHEEL			RFT1			RFT2			LFT2			
		X1	Y1	Z1	X2	Y2	Z2	X3	Y3	Z3	X4	Y4	Z4	X5	Y5	Z5	X6	Y6	Z6	X7	Y7	Z7	X8	Y8	Z8	X9	Y9	Z9	X10	Y10	Z10	X11	Y11	Z11	X12	Y12	Z12	X13	Y13	Z13	X14	Y14	Z14	X15	Y15	Z15	X16	Y16	Z16	X17	Y17	Z17	X18	Y18	Z18	X19	Y19	Z19	X20	Y20	Z20	X21	Y21	Z21	X22	Y22	Z22	X23	Y23	Z23	X24	Y24	Z24	X25	Y25	Z25	X26	Y26	Z26	X27	Y27	Z27	X28	Y28	Z28	X29	Y29	Z29	X30	Y30	Z30	X31	Y31	Z31	X32	Y32	Z32	X33	Y33	Z33	X34	Y34	Z34	X35	Y35	Z35	X36	Y36	Z36	X37	Y37	Z37	X38	Y38	Z38	X39	Y39	Z39	

266	1.325	2471.470703125	1424.937377929688	-508.1784057617188	2446.6669921875	1428.003784179688	-211.8642883300781	2461.753173828125	975.0120239257812	-483.6368713378906	2498.94970703125	977.3846435546876	-209.6492462158203	2510.932373046875	928.8124389648438	-465.4698181152344	2081.675048828125	193.44482421875	-384.9736633300781	2522.58984375	937.3780517578124	-230.9220886230469	2370.798828125	855.0964965820312	-498.9497680664062	2408.701416015625	842.514892578125	-166.7545776367188	2340.143310546875	967.1277465820312	-343.7740173339844	2438.195556640625	628.3272705078125	-512.2507934570312	2232.9052734375	343.0216064453125	-470.2499389648438	2363.664306640625	628.3050537109375	-485.6062316894531	2446.990478515625	530.0658569335938	-495.8399353027344	2497.19921875	100.6787872314453	-195.596435546875	2299.330322265625	413.6365966796875	-491.3565368652344	2370.19384765625	530.7416381835938	-474.4716491699219	2630.796142578125	699.44091796875	-186.6882476806641	2268.623046875	42.35585021972656	-434.8693542480469	2563.53564453125	663.0784301757812	-173.4441680908203	2677.73681640625	614.0279541015625	-214.5163879394531	2606.976318359375	573.8673706054688	-193.7661895751953	2392.8330078125	461.640625	-492.4731750488281	2655.002197265625	526.5375366210938	-200.9155731201172	2361.95654296875	359.1271057128906	-492.7408447265625	2289.79541015625	285.3414306640625	-475.4868774414062	2618.94091796875	411.677734375	-203.0267639160156	2196.72314453125	52.41117858886719	-490.9438171386719	2546.747802734375	457.8194885253906	-200.3242034912109	2076.466552734375	164.8466339111328	-362.6004943847656	2557.412109375	329.6812744140625	-214.6080169677734	2495.07763671875	376.6364440917969	-209.5289459228516	2140.5927734375	183.8273773193359	-452.6617126464844	2423.231689453125	216.3358917236328	-225.7451782226562	2570.134033203125	68.61910247802734	-255.8206329345703	2359.570068359375	221.5185546875	-281.2234497070312	2354.62158203125	186.6454925537109	-306.7371826171875	2345.2021484375	198.6199798583984	-253.6861267089844	2061.378662109375	165.5991516113281	-415.3064880371094
267	1.33	2491.338134765625	1429.04052734375	-505.8548889160156	2462.728515625	1431.49560546875	-210.8143768310547	2481.874755859375	978.6788940429688	-482.093994140625	2515.06494140625	981.378173828125	-207.5084991455078	2530.72607421875	931.6875	-463.6440124511719	2093.859619140625	203.5550231933594	-387.8174438476562	2540.52197265625	941.1085815429688	-228.754638671875	2390.1455078125	858.81005859375	-498.4638061523438	2428.138427734375	846.5761108398438	-164.9107971191406	2359.66064453125	969.8692626953124	-343.5160827636719	2455.46337890625	631.39892578125	-513.5453491210938	2245.59619140625	349.2190856933594	-472.5028991699219	2381.20166015625	632.23876953125	-486.5993347167969	2462.50439453125	532.551025390625	-497.8638000488281	2538.81396484375	96.19415283203124	-195.4877624511719	2312.59228515625	418.6410522460938	-492.878173828125	2385.43994140625	533.87353515625	-475.4664916992188	2650.5556640625	703.5467529296875	-186.4954681396484	2271.579833984375	40.43009185791016	-435.1256713867188	2583.52734375	666.9640502929688	-173.4468078613281	2697.724853515625	618.6038818359375	-215.4232482910156	2627.0390625	577.5576171875	-194.0947113037109	2407.177978515625	465.6272277832031	-494.11962890625	2675.67138671875	530.257568359375	-201.5568695068359	2375.16064453125	363.8345336914062	-496.6732177734375	2301.126708984375	290.5723876953125	-478.0406494140625	2644.65869140625	412.9461364746094	-203.1509399414062	2200.189697265625	54.87709808349609	-491.9521789550781	2570.038330078125	455.1731872558594	-199.8700408935547	2087.11279296875	175.5599670410156	-364.6192932128906	2586.873779296875	328.0218811035156	-214.6557312011719	2521.60546875	371.8116760253906	-209.0835113525391	2151.5966796875	190.4046783447266	-454.8130493164062	2459.255859375	207.6334533691406	-225.0530090332031	2613.79345703125	68.68058776855469	-256.1065979003906	2394.673583984375	209.4891052246094	-280.6407165527344	2392.09814453125	174.0324401855469	-306.5542907714844	2381.90087890625	185.7787780761719	-253.0010986328125	2071.76318359375	176.5567016601562	-417.8682250976562
268	1.335	2509.845458984375	1432.766845703125	-503.4676208496094	2478.65576171875	1434.846801757812	-209.7365570068359	2501.728271484375	981.6112670898438	-481.0362548828125	2531.3623046875	985.155517578125	-205.5200347900391	2550.555419921875	935.4104614257812	-462.0364685058594	2106.697509765625	213.8426208496094	-391.0265502929688	2558.720458984375	944.3069458007812	-226.9710998535156	2409.732666015625	863.0612182617188	-497.9140930175781	2447.46337890625	850.01025390625	-163.6717681884766	2378.38916015625	972.9343872070312	-342.7995910644531	2471.455078125	634.2048950195312	-513.7689208984375	2258.170654296875	354.776123046875	-474.3473510742188	2397.576904296875	635.2788696289062	-487.3761901855469	2478.10498046875	535.5618286132812	-499.008056640625	2581.44140625	92.34072113037108	-196.0931549072266	2323.59716796875	424.56103515625	-493.5971984863281	2400.90625	537.5757446289062	-476.8203125	2670.30810546875	707.4341430664062	-185.9227600097656	2274.934326171875	38.96128845214844	-436.4751281738281	2603.60205078125	670.662353515625	-173.2243041992188	2717.626220703125	622.7391357421875	-215.8669281005859	2646.826171875	581.550537109375	-194.0743560791016	2421.5732421875	469.1223754882812	-496.1041870117188	2695.41748046875	533.4242553710938	-202.3654327392578	2405.67529296875	360.3048400878906	-491.3456726074219	2313.064697265625	295.560302734375	-480.7522888183594	2669.800537109375	414.7989196777344	-203.1636505126953	2204.49755859375	57.26514053344727	-492.5758666992188	2593.161376953125	452.5306396484375	-199.5931243896484	2098.367431640625	186.2272033691406	-367.38916015625	2617.5498046875	324.9924621582031	-216.2782135009766	2549.645263671875	366.7364196777344	-208.6569671630859	2162.572509765625	196.8911285400391	-457.5993347167969	2495.0244140625	198.9534454345703	-225.5040283203125	2657.129150390625	69.09723663330078	-256.7640991210938	2430.527099609375	197.8496704101562	-279.6431884765625	2430.331787109375	162.3572845458984	-306.0308532714844	2418.974609375	173.0289916992188	-252.3105926513672	2083.4267578125	187.7637634277344	-420.5649719238281
269	1.34	2529.07958984375	1436.068359375	-500.8336181640625	2494.744384765625	1437.891967773438	-208.8206787109375	2521.94970703125	984.3384399414062	-480.0993957519531	2548.996826171875	988.906494140625	-203.8886566162109	2570.303466796875	938.4197387695312	-460.1002807617188	2120.223388671875	223.4920043945312	-394.3968811035156	2577.06396484375	948.27392578125	-225.3482360839844	2430.916015625	865.3493041992188	-496.8994445800781	2466.811279296875	854.0452880859375	-162.0236968994141	2398.246337890625	975.454345703125	-342.2026977539062	2488.555908203125	637.0192260742188	-514.8700561523438	2270.8974609375	360.70166015625	-476.5476684570312	2413.921142578125	638.6668701171875	-487.7845458984375	2493.876953125	538.3351440429688	-500.913818359375	2623.546630859375	88.95915985107422	-196.4158172607422	2339.54150390625	429.0597229003906	-496.4668884277344	2417.089599609375	540.6953735351562	-478.5711059570312	2689.803466796875	710.45263671875	-185.7764282226562	2278.102783203125	37.52119827270508	-437.2671813964844	2622.82275390625	673.5009765625	-172.8797149658203	2735.3359375	626.3977661132812	-214.069091796875	2666.1025390625	584.6175537109375	-194.7111663818359	2435.961181640625	473.0157165527344	-497.6080322265625	2715.13525390625	536.6473999023438	-202.6707763671875	2416.98046875	364.4902038574219	-493.1680297851562	2325.555908203125	301.1146240234375	-483.8137512207031	2694.1943359375	415.6254272460938	-203.4362945556641	2209.0712890625	59.90188980102539	-493.1905212402344	2616.392333984375	449.4830627441406	-199.0615081787109	2110.347412109375	197.6149444580078	-370.585693359375	2646.847412109375	323.6960144042969	-215.9316253662109	2577.423095703125	360.9903564453125	-208.3573608398438	2174.21435546875	203.4085083007812	-460.3330688476562	2531.541748046875	191.0659790039062	-225.3935089111328	2698.2255859375	70.41718292236328	-255.1072387695312	2466.896240234375	186.0306243896484	-279.4683837890625	2468.59033203125	151.2938690185547	-305.4519348144531	2456.802490234375	160.5538024902344	-252.0676727294922	2095.48046875	198.5947570800781	-423.59521484375
